<svg width="178" height="22" viewBox="0 0 178 22" fill="none" xmlns="http://www.w3.org/2000/svg">
<path d="M6.616 6.132V8.568H12.776V13.244H6.616V16.044H13.616V21H0.4V1.176H13.616V6.132H6.616ZM34.9706 21H28.7546L22.1746 11.032V21H15.9586V1.176H22.1746L28.7546 11.312V1.176H34.9706V21ZM46.0389 1.176C48.1109 1.176 49.9216 1.596 51.4709 2.436C53.0389 3.276 54.2429 4.44267 55.0829 5.936C55.9229 7.42933 56.3429 9.128 56.3429 11.032C56.3429 12.9173 55.9229 14.616 55.0829 16.128C54.2429 17.64 53.0389 18.8347 51.4709 19.712C49.9216 20.5707 48.1109 21 46.0389 21H37.7789V1.176H46.0389ZM45.4789 15.456C46.8789 15.456 47.9896 15.0733 48.8109 14.308C49.6322 13.5427 50.0429 12.4507 50.0429 11.032C50.0429 9.61333 49.6322 8.52133 48.8109 7.756C47.9896 6.99067 46.8789 6.608 45.4789 6.608H43.9949V15.456H45.4789ZM74.7995 7.98C74.7995 9.23067 74.5102 10.3693 73.9315 11.396C73.3528 12.404 72.4942 13.2067 71.3555 13.804C70.2355 14.4013 68.8728 14.7 67.2675 14.7H64.8035V21H58.5875V1.176H67.2675C69.6942 1.176 71.5515 1.792 72.8395 3.024C74.1462 4.256 74.7995 5.908 74.7995 7.98ZM66.5675 9.8C67.8555 9.8 68.4995 9.19333 68.4995 7.98C68.4995 6.76667 67.8555 6.16 66.5675 6.16H64.8035V9.8H66.5675ZM86.4311 21.196C84.5644 21.196 82.8471 20.7573 81.2791 19.88C79.7298 19.0027 78.4978 17.7893 77.5831 16.24C76.6684 14.6907 76.2111 12.9453 76.2111 11.004C76.2111 9.06267 76.6684 7.31733 77.5831 5.768C78.4978 4.21867 79.7298 3.01467 81.2791 2.156C82.8471 1.27867 84.5644 0.839999 86.4311 0.839999C88.2978 0.839999 90.0058 1.27867 91.5551 2.156C93.1044 3.01467 94.3271 4.21867 95.2231 5.768C96.1378 7.31733 96.5951 9.06267 96.5951 11.004C96.5951 12.9453 96.1378 14.6907 95.2231 16.24C94.3271 17.7893 93.0951 19.0027 91.5271 19.88C89.9778 20.7573 88.2791 21.196 86.4311 21.196ZM86.4311 15.4C87.6631 15.4 88.6151 15.008 89.2871 14.224C89.9591 13.4213 90.2951 12.348 90.2951 11.004C90.2951 9.64133 89.9591 8.568 89.2871 7.784C88.6151 6.98133 87.6631 6.58 86.4311 6.58C85.1804 6.58 84.2191 6.98133 83.5471 7.784C82.8751 8.568 82.5391 9.64133 82.5391 11.004C82.5391 12.348 82.8751 13.4213 83.5471 14.224C84.2191 15.008 85.1804 15.4 86.4311 15.4ZM105.054 1.176V21H98.8375V1.176H105.054ZM126.873 21H120.657L114.077 11.032V21H107.861V1.176H114.077L120.657 11.312V1.176H126.873V21ZM145.249 1.176V6.104H139.985V21H133.769V6.104H128.561V1.176H145.249ZM154.691 21.196C152.32 21.196 150.36 20.6453 148.811 19.544C147.28 18.424 146.45 16.7907 146.319 14.644H152.927C153.02 15.7827 153.524 16.352 154.439 16.352C154.775 16.352 155.055 16.2773 155.279 16.128C155.522 15.96 155.643 15.708 155.643 15.372C155.643 14.9053 155.391 14.532 154.887 14.252C154.383 13.9533 153.599 13.6173 152.535 13.244C151.266 12.796 150.211 12.3573 149.371 11.928C148.55 11.4987 147.84 10.8733 147.243 10.052C146.646 9.23067 146.356 8.176 146.375 6.888C146.375 5.6 146.702 4.508 147.355 3.612C148.027 2.69733 148.932 2.00667 150.071 1.54C151.228 1.07333 152.526 0.839999 153.963 0.839999C156.39 0.839999 158.312 1.4 159.731 2.52C161.168 3.64 161.924 5.21733 161.999 7.252H155.307C155.288 6.692 155.148 6.29067 154.887 6.048C154.626 5.80533 154.308 5.684 153.935 5.684C153.674 5.684 153.459 5.77733 153.291 5.964C153.123 6.132 153.039 6.37467 153.039 6.692C153.039 7.14 153.282 7.51333 153.767 7.812C154.271 8.092 155.064 8.43733 156.147 8.848C157.398 9.31467 158.424 9.76267 159.227 10.192C160.048 10.6213 160.758 11.2187 161.355 11.984C161.952 12.7493 162.251 13.7107 162.251 14.868C162.251 16.0813 161.952 17.1733 161.355 18.144C160.758 19.096 159.89 19.8427 158.751 20.384C157.612 20.9253 156.259 21.196 154.691 21.196Z" fill="white"/>
<path fill-rule="evenodd" clip-rule="evenodd" d="M165.5 14.571L172.665 21.7365L174.076 20.3258L166.633 12.883C166.373 13.5223 165.985 14.0956 165.5 14.571ZM166.946 11.7365H177.901V9.73654H166.839C166.944 10.1401 167 10.5635 167 11C167 11.2502 166.982 11.4962 166.946 11.7365ZM166.558 8.94239L174.083 1.41768L172.665 -2.86102e-06L165.364 7.30109C165.866 7.75802 166.275 8.31579 166.558 8.94239Z" fill="#4285F4"/>
</svg>
