<svg width="177" height="23" viewBox="0 0 177 23" fill="none" xmlns="http://www.w3.org/2000/svg">
<path fill-rule="evenodd" clip-rule="evenodd" d="M164.364 8.30109C164.866 8.75802 165.275 9.31579 165.558 9.94238L173.083 2.41768L171.665 0.999997L164.364 8.30109Z" fill="#34A853"/>
<path fill-rule="evenodd" clip-rule="evenodd" d="M165.946 12.7365C165.982 12.4962 166 12.2502 166 12C166 11.5635 165.944 11.1401 165.839 10.7365H176.901V12.7365H165.946Z" fill="#4285F4"/>
<path fill-rule="evenodd" clip-rule="evenodd" d="M165.633 13.883C165.373 14.5223 164.985 15.0956 164.5 15.571L171.665 22.7365L173.076 21.3258L165.633 13.883Z" fill="#FBBC05"/>
<path d="M5.616 6.132V8.568H11.776V13.244H5.616V16.044H12.616V21H-0.6V1.176H12.616V6.132H5.616ZM33.9706 21H27.7546L21.1746 11.032V21H14.9586V1.176H21.1746L27.7546 11.312V1.176H33.9706V21ZM45.0389 1.176C47.1109 1.176 48.9216 1.596 50.4709 2.436C52.0389 3.276 53.2429 4.44267 54.0829 5.936C54.9229 7.42933 55.3429 9.128 55.3429 11.032C55.3429 12.9173 54.9229 14.616 54.0829 16.128C53.2429 17.64 52.0389 18.8347 50.4709 19.712C48.9216 20.5707 47.1109 21 45.0389 21H36.7789V1.176H45.0389ZM44.4789 15.456C45.8789 15.456 46.9896 15.0733 47.8109 14.308C48.6322 13.5427 49.0429 12.4507 49.0429 11.032C49.0429 9.61333 48.6322 8.52133 47.8109 7.756C46.9896 6.99067 45.8789 6.608 44.4789 6.608H42.9949V15.456H44.4789ZM73.7995 7.98C73.7995 9.23067 73.5102 10.3693 72.9315 11.396C72.3528 12.404 71.4942 13.2067 70.3555 13.804C69.2355 14.4013 67.8728 14.7 66.2675 14.7H63.8035V21H57.5875V1.176H66.2675C68.6942 1.176 70.5515 1.792 71.8395 3.024C73.1462 4.256 73.7995 5.908 73.7995 7.98ZM65.5675 9.8C66.8555 9.8 67.4995 9.19333 67.4995 7.98C67.4995 6.76667 66.8555 6.16 65.5675 6.16H63.8035V9.8H65.5675ZM85.4311 21.196C83.5644 21.196 81.8471 20.7573 80.2791 19.88C78.7298 19.0027 77.4978 17.7893 76.5831 16.24C75.6684 14.6907 75.2111 12.9453 75.2111 11.004C75.2111 9.06267 75.6684 7.31733 76.5831 5.768C77.4978 4.21867 78.7298 3.01467 80.2791 2.156C81.8471 1.27867 83.5644 0.839999 85.4311 0.839999C87.2978 0.839999 89.0058 1.27867 90.5551 2.156C92.1044 3.01467 93.3271 4.21867 94.2231 5.768C95.1378 7.31733 95.5951 9.06267 95.5951 11.004C95.5951 12.9453 95.1378 14.6907 94.2231 16.24C93.3271 17.7893 92.0951 19.0027 90.5271 19.88C88.9778 20.7573 87.2791 21.196 85.4311 21.196ZM85.4311 15.4C86.6631 15.4 87.6151 15.008 88.2871 14.224C88.9591 13.4213 89.2951 12.348 89.2951 11.004C89.2951 9.64133 88.9591 8.568 88.2871 7.784C87.6151 6.98133 86.6631 6.58 85.4311 6.58C84.1804 6.58 83.2191 6.98133 82.5471 7.784C81.8751 8.568 81.5391 9.64133 81.5391 11.004C81.5391 12.348 81.8751 13.4213 82.5471 14.224C83.2191 15.008 84.1804 15.4 85.4311 15.4ZM104.054 1.176V21H97.8375V1.176H104.054ZM125.873 21H119.657L113.077 11.032V21H106.861V1.176H113.077L119.657 11.312V1.176H125.873V21ZM144.249 1.176V6.104H138.985V21H132.769V6.104H127.561V1.176H144.249ZM153.691 21.196C151.32 21.196 149.36 20.6453 147.811 19.544C146.28 18.424 145.45 16.7907 145.319 14.644H151.927C152.02 15.7827 152.524 16.352 153.439 16.352C153.775 16.352 154.055 16.2773 154.279 16.128C154.522 15.96 154.643 15.708 154.643 15.372C154.643 14.9053 154.391 14.532 153.887 14.252C153.383 13.9533 152.599 13.6173 151.535 13.244C150.266 12.796 149.211 12.3573 148.371 11.928C147.55 11.4987 146.84 10.8733 146.243 10.052C145.646 9.23067 145.356 8.176 145.375 6.888C145.375 5.6 145.702 4.508 146.355 3.612C147.027 2.69733 147.932 2.00667 149.071 1.54C150.228 1.07333 151.526 0.839999 152.963 0.839999C155.39 0.839999 157.312 1.4 158.731 2.52C160.168 3.64 160.924 5.21733 160.999 7.252H154.307C154.288 6.692 154.148 6.29067 153.887 6.048C153.626 5.80533 153.308 5.684 152.935 5.684C152.674 5.684 152.459 5.77733 152.291 5.964C152.123 6.132 152.039 6.37467 152.039 6.692C152.039 7.14 152.282 7.51333 152.767 7.812C153.271 8.092 154.064 8.43733 155.147 8.848C156.398 9.31467 157.424 9.76267 158.227 10.192C159.048 10.6213 159.758 11.2187 160.355 11.984C160.952 12.7493 161.251 13.7107 161.251 14.868C161.251 16.0813 160.952 17.1733 160.355 18.144C159.758 19.096 158.89 19.8427 157.751 20.384C156.612 20.9253 155.259 21.196 153.691 21.196Z" fill="white"/>
</svg>
