<svg width="80" height="22" viewBox="0 0 80 22" fill="none" xmlns="http://www.w3.org/2000/svg">
<path fill-rule="evenodd" clip-rule="evenodd" d="M67.3643 7.30109C67.8664 7.75802 68.2751 8.31579 68.5583 8.94238L76.0831 1.41768L74.6654 -2.86102e-06L67.3643 7.30109Z" fill="#34A853"/>
<path fill-rule="evenodd" clip-rule="evenodd" d="M68.9461 11.7365C68.9816 11.4962 69 11.2502 69 11C69 10.5635 68.9441 10.1401 68.839 9.73654H79.9007V11.7365H68.9461Z" fill="#4285F4"/>
<path fill-rule="evenodd" clip-rule="evenodd" d="M68.6333 12.883C68.3732 13.5223 67.9847 14.0956 67.4998 14.571L74.6653 21.7365L76.0761 20.3258L68.6333 12.883Z" fill="#FBBC05"/>
<path d="M0.56 11.104C0.56 9.44267 0.84 8.00533 1.4 6.792C1.97867 5.56 2.76267 4.62667 3.752 3.992C4.74133 3.33867 5.852 3.012 7.084 3.012C8.11067 3.012 8.99733 3.22667 9.744 3.656C10.4907 4.06667 11.06 4.636 11.452 5.364V3.208H17.64V19H11.452V16.844C11.06 17.572 10.4907 18.1507 9.744 18.58C8.99733 18.9907 8.11067 19.196 7.084 19.196C5.852 19.196 4.74133 18.8787 3.752 18.244C2.76267 17.5907 1.97867 16.6573 1.4 15.444C0.84 14.212 0.56 12.7653 0.56 11.104ZM11.452 11.104C11.452 10.264 11.2373 9.61067 10.808 9.144C10.3787 8.67733 9.828 8.444 9.156 8.444C8.484 8.444 7.93333 8.67733 7.504 9.144C7.07467 9.61067 6.86 10.264 6.86 11.104C6.86 11.944 7.07467 12.5973 7.504 13.064C7.93333 13.5307 8.484 13.764 9.156 13.764C9.828 13.764 10.3787 13.5307 10.808 13.064C11.2373 12.5973 11.452 11.944 11.452 11.104ZM41.5153 3.096C43.5313 3.096 45.0899 3.70267 46.1913 4.916C47.3113 6.12933 47.8713 7.772 47.8713 9.844V19H41.6833V10.628C41.6833 9.956 41.4779 9.43333 41.0673 9.06C40.6753 8.668 40.1433 8.472 39.4713 8.472C38.7806 8.472 38.2393 8.668 37.8473 9.06C37.4553 9.43333 37.2593 9.956 37.2593 10.628V19H31.0713V10.628C31.0713 9.956 30.8659 9.43333 30.4553 9.06C30.0633 8.668 29.5313 8.472 28.8593 8.472C28.1686 8.472 27.6273 8.668 27.2353 9.06C26.8433 9.43333 26.6473 9.956 26.6473 10.628V19H20.4313V3.208H26.6473V5.336C27.0953 4.664 27.7019 4.12267 28.4673 3.712C29.2513 3.30133 30.1659 3.096 31.2113 3.096C32.3499 3.096 33.3579 3.348 34.2353 3.852C35.1126 4.33733 35.8126 5.028 36.3353 5.924C36.9139 5.10267 37.6513 4.43067 38.5473 3.908C39.4433 3.36667 40.4326 3.096 41.5153 3.096ZM57.5921 19.196C56.0987 19.196 54.7734 18.9533 53.6161 18.468C52.4774 17.9827 51.5721 17.3107 50.9001 16.452C50.2281 15.5933 49.8454 14.6227 49.7521 13.54H55.7161C55.7907 14.0067 55.9867 14.352 56.3041 14.576C56.6401 14.8 57.0601 14.912 57.5641 14.912C57.8814 14.912 58.1334 14.8467 58.3201 14.716C58.5067 14.5667 58.6001 14.3893 58.6001 14.184C58.6001 13.8293 58.4041 13.5773 58.0121 13.428C57.6201 13.2787 56.9574 13.1107 56.0241 12.924C54.8854 12.7 53.9427 12.4573 53.1961 12.196C52.4681 11.9347 51.8241 11.4867 51.2641 10.852C50.7227 10.2173 50.4521 9.34 50.4521 8.22C50.4521 7.24933 50.7041 6.372 51.2081 5.588C51.7307 4.78533 52.4961 4.16 53.5041 3.712C54.5121 3.24533 55.7347 3.012 57.1721 3.012C59.3001 3.012 60.9614 3.53467 62.1561 4.58C63.3694 5.62533 64.0974 6.988 64.3401 8.668H58.8241C58.7307 8.23867 58.5347 7.912 58.2361 7.688C57.9374 7.44533 57.5361 7.324 57.0321 7.324C56.7147 7.324 56.4721 7.38933 56.3041 7.52C56.1361 7.632 56.0521 7.80933 56.0521 8.052C56.0521 8.36933 56.2481 8.612 56.6401 8.78C57.0321 8.92933 57.6574 9.088 58.5161 9.256C59.6547 9.48 60.6161 9.732 61.4001 10.012C62.1841 10.292 62.8654 10.7773 63.4441 11.468C64.0227 12.14 64.3121 13.0733 64.3121 14.268C64.3121 15.2013 64.0414 16.0413 63.5001 16.788C62.9587 17.5347 62.1747 18.1227 61.1481 18.552C60.1401 18.9813 58.9547 19.196 57.5921 19.196Z" fill="white"/>
</svg>
